<svg width="80" height="40" viewBox="0 0 80 40" fill="none" xmlns="http://www.w3.org/2000/svg">
    <path d="M36.6755 27.9508H32.5956L35.1455 12.28H39.2258L36.6755 27.9508ZM29.1633 12.28L25.2737 23.0585L24.8135 20.7374L24.8139 20.7383L23.4411 13.691C23.4411 13.691 23.2751 12.28 21.5057 12.28H15.0755L15 12.5454C15 12.5454 16.9664 12.9545 19.2677 14.3365L22.8123 27.9512H27.0632L33.5542 12.28H29.1633ZM61.2538 27.9508H65L61.7337 12.2796H58.4541C56.9396 12.2796 56.5707 13.4474 56.5707 13.4474L50.4858 27.9508H54.7388L55.5894 25.623H60.7759L61.2538 27.9508ZM56.7643 22.4075L58.908 16.5431L60.114 22.4075H56.7643ZM50.8048 16.0485L51.3871 12.6833C51.3871 12.6833 49.5905 12 47.7176 12C45.6929 12 40.8849 12.8849 40.8849 17.1878C40.8849 21.2363 46.5279 21.2866 46.5279 23.4131C46.5279 25.5396 41.4663 25.1586 39.7959 23.8176L39.1893 27.3362C39.1893 27.3362 41.0111 28.2211 43.7944 28.2211C46.5786 28.2211 50.7788 26.7796 50.7788 22.856C50.7788 18.7815 45.0851 18.4022 45.0851 16.6307C45.0855 14.8588 49.0589 15.0864 50.8048 16.0485Z"
          fill="#2566AF"></path>
    <path d="M24.814 20.7366L23.4412 13.6893C23.4412 13.6893 23.2752 12.2783 21.5058 12.2783H15.0755L15 12.5437C15 12.5437 18.0907 13.1842 21.0551 15.584C23.8897 17.8778 24.814 20.7366 24.814 20.7366Z"
          fill="#E6A540"></path>
</svg>