<svg width="42" height="42" viewBox="0 0 42 42" fill="none" xmlns="http://www.w3.org/2000/svg">
<path d="M34.8542 14.052C34.526 12.8484 33.5625 11.9039 32.3385 11.584C30.1198 11 21.224 11 21.224 11C21.224 11 12.3281 11 10.1094 11.584C8.88542 11.9039 7.92187 12.8484 7.59375 14.052C7 16.2305 7 20.7703 7 20.7703C7 20.7703 7 25.3102 7.59375 27.4887C7.92187 28.6922 8.88542 29.5961 10.1094 29.916C12.3281 30.5 21.224 30.5 21.224 30.5C21.224 30.5 30.1198 30.5 32.3385 29.916C33.5625 29.5961 34.526 28.6871 34.8542 27.4887C35.4479 25.3102 35.4479 20.7703 35.4479 20.7703C35.4479 20.7703 35.4479 16.2305 34.8542 14.052ZM18.3177 24.8938V16.6469L25.75 20.7703L18.3177 24.8938Z" fill="#FAFAFA"/>
</svg>
