<svg width="42" height="42" viewBox="0 0 42 42" fill="none" xmlns="http://www.w3.org/2000/svg">
<path d="M10.6172 11.5996C9 13.1992 9 15.7738 9 20.918V21.832C9 26.9762 9 29.5508 10.6172 31.1504C12.2344 32.75 14.8373 32.75 20.0379 32.75H20.9621C26.1627 32.75 28.7656 32.75 30.3828 31.1504C32 29.5508 32 26.9762 32 21.832V20.918C32 15.7738 32 13.1992 30.3828 11.5996C28.7656 10 26.1627 10 20.9621 10H20.0379C14.8373 10 12.2344 10 10.6172 11.5996ZM12.8813 16.9215H15.5047C15.592 21.2633 17.5275 23.1016 19.0625 23.4773V16.9215H21.5371V20.6641C23.0516 20.5016 24.6379 18.7953 25.177 16.9215H27.6516C27.4462 17.8914 27.0458 18.8156 26.4656 19.6281C25.8855 20.4406 25.1462 21.1262 24.2837 21.6391C25.2438 22.1113 26.0908 22.7766 26.7685 23.5992C27.4513 24.4168 27.9442 25.3664 28.2266 26.3871H25.5004C25.254 25.5035 24.7406 24.7062 24.0373 24.107C23.3288 23.5027 22.4612 23.1219 21.5371 23.0051V26.3871H21.2393C15.9975 26.3871 13.0045 22.8324 12.8813 16.9215Z" fill="#FAFAFA"/>
</svg>
