<svg width="42" height="42" viewBox="0 0 42 42" fill="none" xmlns="http://www.w3.org/2000/svg">
<path d="M32 18.659C29.739 18.6638 27.5336 17.9657 25.6955 16.6633V25.743C25.695 27.4246 25.1754 29.0659 24.2063 30.4475C23.2371 31.8291 21.8645 32.8851 20.2722 33.4742C18.6799 34.0633 16.9436 34.1574 15.2957 33.7441C13.6478 33.3307 12.1668 32.4295 11.0507 31.161C9.93462 29.8925 9.23672 28.3172 9.05033 26.6457C8.86394 24.9742 9.19794 23.2863 10.0077 21.8077C10.8174 20.3291 12.0642 19.1303 13.5815 18.3716C15.0987 17.6129 16.8139 17.3304 18.4978 17.5621V22.1273C17.7278 21.8876 16.901 21.8946 16.1353 22.1474C15.3696 22.4002 14.7042 22.8858 14.2342 23.5348C13.7641 24.1839 13.5135 24.9633 13.5179 25.7618C13.5224 26.5602 13.7818 27.3368 14.259 27.9807C14.7363 28.6246 15.4071 29.1029 16.1755 29.3473C16.944 29.5917 17.7709 29.5896 18.5381 29.3415C19.3053 29.0933 19.9737 28.6118 20.4477 27.9655C20.9217 27.3193 21.1772 26.5414 21.1777 25.743V8H25.6955C25.693 8.37795 25.7256 8.75532 25.7931 9.12734C25.9502 9.9566 26.2766 10.7455 26.7524 11.4457C27.2282 12.146 27.8434 12.7429 28.5603 13.2C29.5808 13.8667 30.777 14.2216 32 14.2207V18.659Z" fill="#FAFAFA"/>
</svg>
