<svg width="42" height="42" viewBox="0 0 42 42" fill="none" xmlns="http://www.w3.org/2000/svg">
<path d="M14.9254 32.75H10.3634V17.5613H14.9254V32.75ZM12.642 15.4895C11.1835 15.4895 10 14.2402 10 12.732C10 12.0075 10.2783 11.3125 10.7738 10.8002C11.2693 10.2878 11.9413 10 12.642 10C13.3427 10 14.0147 10.2878 14.5101 10.8002C15.0056 11.3125 15.2839 12.0075 15.2839 12.732C15.2839 14.2402 14.1004 15.4895 12.642 15.4895ZM31.9951 32.75H27.4429V25.3562C27.4429 23.5941 27.4085 21.3344 25.071 21.3344C22.6991 21.3344 22.3357 23.2488 22.3357 25.2293V32.75H17.7786V17.5613H22.154V19.6332H22.2179C22.8268 18.4398 24.3147 17.1805 26.5344 17.1805C31.1504 17.1805 32 20.3238 32 24.4066V32.75H31.9951Z" fill="#FAFAFA"/>
</svg>
