<svg width="42" height="42" viewBox="0 0 42 42" fill="none" xmlns="http://www.w3.org/2000/svg">
<path d="M20.509 15.544C17.2438 15.544 14.6101 18.1491 14.6101 21.3788C14.6101 24.6085 17.2438 27.2136 20.509 27.2136C23.7742 27.2136 26.4079 24.6085 26.4079 21.3788C26.4079 18.1491 23.7742 15.544 20.509 15.544ZM20.509 25.1722C18.3989 25.1722 16.6739 23.471 16.6739 21.3788C16.6739 19.2866 18.3938 17.5854 20.509 17.5854C22.6242 17.5854 24.344 19.2866 24.344 21.3788C24.344 23.471 22.619 25.1722 20.509 25.1722ZM28.0251 15.3054C28.0251 16.062 27.409 16.6663 26.6492 16.6663C25.8842 16.6663 25.2733 16.0569 25.2733 15.3054C25.2733 14.5538 25.8893 13.9444 26.6492 13.9444C27.409 13.9444 28.0251 14.5538 28.0251 15.3054ZM31.932 16.6866C31.8447 14.8636 31.4237 13.2487 30.0735 11.9183C28.7284 10.5878 27.0958 10.1714 25.2527 10.08C23.3532 9.97334 17.6597 9.97334 15.7601 10.08C13.9222 10.1663 12.2896 10.5827 10.9393 11.9132C9.58912 13.2437 9.17327 14.8585 9.08086 16.6815C8.97305 18.5604 8.97305 24.1921 9.08086 26.071C9.16814 27.894 9.58912 29.5089 10.9393 30.8394C12.2896 32.1698 13.917 32.5862 15.7601 32.6776C17.6597 32.7843 23.3532 32.7843 25.2527 32.6776C27.0958 32.5913 28.7284 32.1749 30.0735 30.8394C31.4186 29.5089 31.8396 27.894 31.932 26.071C32.0398 24.1921 32.0398 18.5655 31.932 16.6866ZM29.478 28.087C29.0775 29.0823 28.3023 29.8491 27.2909 30.2503C25.7764 30.8444 22.1826 30.7073 20.509 30.7073C18.8353 30.7073 15.2364 30.8394 13.7271 30.2503C12.7208 29.8542 11.9456 29.0874 11.54 28.087C10.9393 26.589 11.078 23.0343 11.078 21.3788C11.078 19.7233 10.9445 16.1636 11.54 14.6706C11.9405 13.6753 12.7157 12.9085 13.7271 12.5073C15.2416 11.9132 18.8353 12.0503 20.509 12.0503C22.1826 12.0503 25.7815 11.9183 27.2909 12.5073C28.2972 12.9034 29.0724 13.6702 29.478 14.6706C30.0786 16.1687 29.94 19.7233 29.94 21.3788C29.94 23.0343 30.0786 26.594 29.478 28.087Z" fill="#FAFAFA"/>
</svg>
