<svg width="161" height="28" viewBox="0 0 161 28" fill="none" xmlns="http://www.w3.org/2000/svg">
<path fill-rule="evenodd" clip-rule="evenodd" d="M160.873 18.0274C160.957 17.5872 161 17.1392 161 16.6849C161 10.4358 152.828 5.36986 142.748 5.36986C132.668 5.36986 124.496 10.4358 124.496 16.6849C124.496 22.9341 132.668 28 142.748 28C150.772 28 157.586 24.7902 160.033 20.3288H150.907C150.468 20.8789 149.871 21.3857 149.133 21.8245C147.44 22.8315 145.143 23.3973 142.748 23.3973C140.353 23.3973 138.057 22.8315 136.363 21.8245C134.67 20.8174 133.718 19.4516 133.718 18.0274H160.873ZM151.778 15.726C151.778 14.3019 150.827 12.936 149.133 11.929C147.44 10.9219 145.143 10.3562 142.748 10.3562C140.353 10.3562 138.057 10.9219 136.363 11.929C134.67 12.936 133.718 14.3019 133.718 15.726H151.778Z" fill="white"/>
<path d="M122.575 16.6849C122.575 22.9341 114.404 28 104.323 28C94.2432 28 86.0716 22.9341 86.0716 16.6849C86.0716 10.4358 94.2432 5.36986 104.323 5.36986C114.404 5.36986 122.575 10.4358 122.575 16.6849ZM94.278 16.6849C94.278 20.1243 98.7755 22.9125 104.323 22.9125C109.871 22.9125 114.369 20.1243 114.369 16.6849C114.369 13.2455 109.871 10.4574 104.323 10.4574C98.7755 10.4574 94.278 13.2455 94.278 16.6849Z" fill="white"/>
<path d="M81.0764 0.767123H88.7613V28H81.0764V0.767123Z" fill="white"/>
<path d="M69.1647 4.41304C69.1647 6.8503 65.1219 8.82609 60.1348 8.82609C55.1478 8.82609 51.105 6.8503 51.105 4.41304C51.105 1.97579 55.1478 0 60.1348 0C65.1219 0 69.1647 1.97579 69.1647 4.41304Z" fill="white"/>
<path d="M55.3317 9.9726H64.9379V28H55.3317V9.9726Z" fill="white"/>
<path d="M78.3866 21.4795V28H41.8831V21.4795L78.3866 21.4795Z" fill="white"/>
<path d="M78.3866 9.9726V16.1096L41.8831 16.1096V9.9726L78.3866 9.9726Z" fill="white"/>
<path d="M0 0H15.7542L29.9714 28H14.2172L0 0Z" fill="white"/>
<path d="M44.957 0H29.2029L14.9857 28H30.7399L44.957 0Z" fill="white"/>
</svg>
