<svg width="80" height="40" version="1.1" id="Слой_1" xmlns="http://www.w3.org/2000/svg"
     xmlns:xlink="http://www.w3.org/1999/xlink" x="0px" y="0px" viewBox="0 0 1080 432.4" xml:space="preserve"><g><g><g><g><path fill="#5756CE" d="M243.4,332.8c-12.9-13.2-34.1-13.4-47.3-0.5l-65.7,64.4c-4.4,4.3-4.3,9.9-2.8,13.6      c1.5,3.7,5.3,7.7,11.5,7.8l115.5,0.4c8.9,0,16.3-7.2,16.4-16.1c0-0.5,0-1,0-1.4C271.2,375.6,261.1,350.9,243.4,332.8z"></path></g><g><path fill="#5756CE" d="M153.8,317.1c0.2-18.4-14.7-33.6-33.1-33.8l-91.9-0.9c-6.2-0.1-10,3.9-11.6,7.6c-1.6,3.7-1.7,9.3,2.6,13.6      l81.4,81.9c6.3,6.3,16.6,6.4,23,0.2c0.3-0.3,0.7-0.7,1-1C143.2,367.1,153.6,342.4,153.8,317.1z"></path></g><g><path fill="#5756CE" d="M101.6,242.7c13.2-12.9,13.4-34.1,0.5-47.3l-64.4-65.7c-4.3-4.4-9.9-4.3-13.6-2.8      c-3.7,1.5-7.7,5.3-7.8,11.5L15.9,254c0,8.9,7.2,16.3,16.1,16.4c0.5,0,1,0,1.4,0C58.7,270.5,83.5,260.4,101.6,242.7z"></path></g><g><path fill="#5756CE" d="M191.6,100.9c12.9,13.2,34.1,13.4,47.3,0.5L304.6,37c4.4-4.3,4.3-9.9,2.8-13.6c-1.5-3.7-5.3-7.7-11.5-7.8      l-115.5-0.4c-8.9,0-16.3,7.2-16.4,16.1c0,0.5,0,1,0,1.4C163.9,58.1,173.9,82.8,191.6,100.9z"></path></g><g><path fill="#5756CE" d="M281.2,116.6c-0.2,18.4,14.7,33.6,33.1,33.8l91.9,0.9c6.2,0.1,10-3.9,11.6-7.6c1.6-3.7,1.7-9.3-2.6-13.6      L333.8,48c-6.3-6.3-16.6-6.4-23-0.2c-0.3,0.3-0.7,0.7-1,1C291.9,66.6,281.5,91.2,281.2,116.6z"></path></g><g><path fill="#5756CE" d="M333.5,191c-13.2,12.9-13.4,34.1-0.5,47.3l64.4,65.7c4.3,4.4,9.9,4.3,13.6,2.8c3.7-1.5,7.7-5.3,7.8-11.5      l0.4-115.5c0-8.9-7.2-16.3-16.1-16.4c-0.5,0-1,0-1.4,0C376.3,163.2,351.5,173.2,333.5,191z"></path></g><g><path fill="#5756CE" d="M317.8,280.5c-18.4-0.2-33.6,14.7-33.8,33.1l-0.9,91.9c-0.1,6.2,3.9,10,7.6,11.6c3.7,1.6,9.3,1.7,13.6-2.6      l81.9-81.4c6.3-6.3,6.4-16.6,0.2-23c-0.3-0.3-0.7-0.7-1-1C367.7,291.2,343.1,280.8,317.8,280.5z"></path></g></g></g><path
        fill="#5756CE"
        d="M140.3,73.1v-6.9c0-16.8-13.3-30.8-30.1-31c-17.1-0.3-31.1,13.6-31.1,30.6v7.4c-9.9,3.8-17,13.4-17,24.7v17.3   c0,14.6,11.8,26.4,26.4,26.4h8.9c1.6,0,3-1.2,3.4-2.8l3.9-26.5c0.1-0.7-0.2-1.4-0.8-1.8c-3.7-2.2-6-6.3-5.5-11   c0.6-5.2,4.7-9.3,9.9-9.9c6.8-0.8,12.7,4.6,12.7,11.2c0,4.1-2.2,7.7-5.5,9.7c-0.6,0.4-0.9,1.1-0.8,1.8l3.9,26.5   c0.3,1.6,1.7,2.8,3.4,2.8h8.9c14.6,0,26.4-11.8,26.4-26.4V97.8C157.2,86.5,150.2,76.9,140.3,73.1z M133.5,71.5   c-0.9-0.1-1.8-0.1-2.6-0.1H88.6c-0.9,0-1.8,0-2.6,0.1v-5.8c0-13.3,10.9-24,24.2-23.8c13,0.2,23.3,11.2,23.3,24.2V71.5z"></path></g>
    <g><g><path fill="#29374A" d="M599.1,115.5c0,18.4-13.6,31.3-32.5,31.3c-17.9,0-32.7-11.6-32.7-34.6V101c0-22.1,10.7-38.1,30.5-41.9    l29.3-3.6v11.8l-26.5,3.2c-12,2.4-19.3,10.1-20,26c4.6-9.1,13.4-11.5,21.6-11.5C586.3,84.9,599.1,97.3,599.1,115.5z M585.7,115.4    c0-11-7.9-19-19-19c-11.2,0-19.1,7.9-19.1,19c0,11.3,7.9,19.1,19.1,19.1C577.7,134.5,585.7,126.7,585.7,115.4z"></path><path
            fill="#29374A"
            d="M670.5,119.1c0-2,0-3.8-0.1-5.7c-1.5-20.2-14.3-31.3-31.7-31.3c-18.5,0-31.8,14-31.8,32.5    c0,19.4,13.9,32.3,32.8,32.3c14,0,25.1-8.2,28.9-18.7h-13.3c-3.1,4.1-8.2,7.3-15.5,7.3c-10.3,0-18.3-6.7-19.1-16.4H670.5z    M620.7,108.7c0.7-8.9,8.2-15.4,18-15.4c10.2,0,17.3,6.6,17.7,15.4H620.7z"></path><path
            fill="#29374A"
            d="M675.1,133.9c4.8-0.2,9.8-2.9,9.8-12.8V83.5h48.9v62.3h-13.6v-50h-22v25.6c0,17.3-10.2,25.1-23.3,24.8    L675.1,133.9z"></path><polygon
            fill="#29374A"
            points="771,112.5 800.8,83.5 785,83.5 768.5,99.5 759.2,108.5 759.2,83.5 759,83.5 746.4,83.5 745.6,83.5     745.6,145.8 746.4,145.8 759,145.8 759.2,145.8 759.2,116.5 768.4,126.8 785.1,145.8 800.9,145.8   "></polygon><path
            fill="#29374A"
            d="M855.1,83.4l-1.7,9.3c-5.3-6.5-14.5-10.5-22.8-10.5c-0.1,0-0.2,0-0.3,0c-0.1,0-0.3,0-0.4,0    c-9,0-16.3,3.3-21.6,8.6c-0.3,0.3-0.5,0.5-0.8,0.8c-0.1,0.2-0.3,0.3-0.4,0.5c-5,5.7-7.9,13.5-7.9,22.4c0,0,0,0.1,0,0.1    c0,0,0,0.1,0,0.1c0,8.9,2.8,16.7,7.9,22.4c0.1,0.2,0.3,0.3,0.4,0.5c0.2,0.3,0.5,0.5,0.8,0.8c5.2,5.4,12.6,8.6,21.6,8.6    c0.1,0,0.3,0,0.4,0c0.1,0,0.2,0,0.3,0c8.3,0,17.5-3.9,22.8-10.5v9.3h13.8v-0.1V83.5v-0.1H855.1z M833.4,134.5    c-11.8,0-20.2-8.3-20.2-19.9s8.4-19.9,20.2-19.9c11.6,0,19.9,8.6,19.9,19.9S845,134.5,833.4,134.5z"></path><path
            fill="#29374A"
            d="M879,83.4v0.1v90.2v0.1h13.8v-37.3c5.3,6.5,14.5,10.5,22.8,10.5c0.1,0,0.2,0,0.3,0c0.1,0,0.3,0,0.4,0    c9,0,16.3-3.3,21.6-8.6c0.3-0.3,0.5-0.5,0.8-0.8c0.1-0.2,0.3-0.3,0.4-0.5c5-5.7,7.9-13.5,7.9-22.4c0,0,0-0.1,0-0.1    c0,0,0-0.1,0-0.1c0-8.9-2.8-16.7-7.9-22.4c-0.1-0.2-0.3-0.3-0.4-0.5c-0.2-0.3-0.5-0.5-0.8-0.8c-5.2-5.4-12.6-8.6-21.6-8.6    c-0.1,0-0.3,0-0.4,0c-0.1,0-0.2,0-0.3,0c-8.3,0-17.5,3.9-22.8,10.5l-1.7-9.3H879z M892.9,114.6c0-11.3,8.3-19.9,19.9-19.9    c11.8,0,20.2,8.3,20.2,19.9s-8.4,19.9-20.2,19.9C901.2,134.5,892.9,125.9,892.9,114.6z"></path><path
            fill="#29374A"
            d="M1049.7,106.9v38.9H1036v-35.4c0-11.3-5.8-16.3-13.5-16.3c-7.9,0-13.9,5.3-13.9,16.3v35.4h-13.7v-35.4    c0-11.3-5.9-16.3-13.3-16.3c-8.1,0-14.1,5.3-14.1,16.3v35.4h-13.8V83.5h12.1l1.6,9c3.6-6.4,9.6-10.3,18.8-10.3    c8.4,0,15.3,3.5,19,10.3c4.1-6.4,10.9-10.3,21-10.3C1040.2,82.2,1049.7,91.6,1049.7,106.9z"></path></g>
        <g><path fill="#29374A" d="M581.1,193.1h11v61.1h-12.1v-40.5l-33.2,40.5h-11.2v-61.1h12.1v41.2L581.1,193.1z"></path>
            <path fill="#29374A"
                  d="M646.6,193.1h12.1v61.1h-12.1v-22h-30.7v22h-12.1v-61.1h12.1v26.3h30.7V193.1z"></path>
            <path fill="#29374A" d="M1025.4,254.1v-50.3h-19.6v-10.8h52.3v10.8h-19.4v50.3H1025.4z"></path>
            <path fill="#29374A"
                  d="M785.3,228.1c0-1.9,0-3.8-0.1-5.5c-1.5-19.8-14-30.6-31-30.6c-18.1,0-31.1,13.7-31.1,31.8    c0,19,13.6,31.6,32.1,31.6c13.7,0,24.5-8,28.3-18.3h-13c-3,4.1-8.1,7.1-15.2,7.1c-10.1,0-17.9-6.6-18.7-16.1H785.3z M736.6,217.9    c0.7-8.7,8.1-15,17.7-15c10,0,17,6.5,17.3,15H736.6z"></path>
            <path fill="#29374A"
                  d="M1001.9,228.1c0-1.9,0-3.8-0.1-5.5c-1.5-19.8-14-30.6-31-30.6c-18.1,0-31.1,13.7-31.1,31.8    c0,19,13.6,31.6,32.1,31.6c13.7,0,24.5-8,28.3-18.3h-13c-3,4.1-8.1,7.1-15.2,7.1c-10.1,0-17.9-6.6-18.7-16.1H1001.9z M953.1,217.9    c0.7-8.7,8.1-15,17.7-15c10,0,17,6.5,17.3,15H953.1z"></path>
            <path fill="#29374A"
                  d="M917.3,193.1h12.1v61.1h-12.1v-22h-30.7v22h-12.1v-61.1h12.1v26.3h30.7V193.1z"></path>
            <path fill="#29374A" d="M687.3,254.1v-50.3h-19.6v-10.8h52.3v10.8h-19.4v50.3H687.3z"></path>
            <path fill="#29374A"
                  d="M796.9,192.4v0.1V281v0.1h13.5v-36.6c5.2,6.4,14.3,10.3,22.4,10.3c0.1,0,0.2,0,0.3,0c0.1,0,0.3,0,0.4,0    c8.8,0,16-3.2,21.2-8.5c0.2-0.2,0.5-0.5,0.7-0.7c0.1-0.2,0.3-0.3,0.4-0.5c5-5.6,7.7-13.2,7.7-22c0,0,0-0.1,0-0.1c0,0,0-0.1,0-0.1    c0-8.7-2.8-16.4-7.7-22c-0.1-0.2-0.3-0.3-0.4-0.5c-0.2-0.3-0.5-0.5-0.7-0.7c-5.1-5.3-12.3-8.5-21.2-8.5c-0.1,0-0.3,0-0.4,0    c-0.1,0-0.2,0-0.3,0c-8.1,0-17.1,3.8-22.4,10.3l-1.6-9.1H796.9z M810.6,223c0-11.1,8.1-19.5,19.6-19.5c11.5,0,19.8,8.1,19.8,19.5    s-8.2,19.5-19.8,19.5C818.7,242.6,810.6,234.1,810.6,223z"></path>
            <g><path fill="#29374A" d="M591.8,302.5v61.1h-13.7v-50.3h-28.7v50.3h-13.7v-61.1H591.8z"></path>
                <path fill="#29374A"
                      d="M924.8,321.5c14.4,0,24.1,8,24.1,21.1c0,13.2-9.8,21.1-24.1,21.1h-25.1v-61.1h12.1v18.9H924.8z M923.2,352.2     c7.4,0,13.6-3.3,13.6-9.6c0-6.4-6.1-9.8-13.6-9.8h-11.5v19.4H923.2z"></path>
                <path fill="#29374A"
                      d="M656.6,302.8l-1.6,9c-5.2-6.4-14.2-10.2-22.3-10.2c-0.1,0-0.2,0-0.3,0c-0.1,0-0.3,0-0.4,0     c-8.8,0-15.9,3.2-21.1,8.4c-0.2,0.2-0.5,0.5-0.7,0.7c-0.1,0.2-0.3,0.3-0.4,0.5c-4.9,5.6-7.7,13.2-7.7,21.9c0,0,0,0.1,0,0.1     c0,0,0,0.1,0,0.1c0,8.7,2.8,16.3,7.7,21.9c0.1,0.2,0.3,0.3,0.4,0.5c0.2,0.3,0.5,0.5,0.7,0.7c5.1,5.2,12.3,8.4,21.1,8.4     c0.1,0,0.3,0,0.4,0c0.1,0,0.2,0,0.3,0c8.1,0,17.1-3.8,22.3-10.2v9h13.5v-0.1v-60.7v-0.1H656.6z M635.4,352.7     c-11.5,0-19.7-8.1-19.7-19.5s8.2-19.5,19.7-19.5c11.4,0,19.5,8.4,19.5,19.5S646.7,352.7,635.4,352.7z"></path>
                <path fill="#29374A"
                      d="M682.2,301.9v0.1v88.5v0.1h13.5v-36.6c5.2,6.4,14.3,10.3,22.4,10.3c0.1,0,0.2,0,0.3,0c0.1,0,0.3,0,0.4,0     c8.8,0,16-3.2,21.2-8.5c0.2-0.2,0.5-0.5,0.7-0.7c0.1-0.2,0.3-0.3,0.4-0.5c5-5.6,7.7-13.2,7.7-22c0,0,0-0.1,0-0.1c0,0,0-0.1,0-0.1     c0-8.7-2.8-16.4-7.7-22c-0.1-0.2-0.3-0.3-0.4-0.5c-0.2-0.3-0.5-0.5-0.7-0.7c-5.1-5.3-12.3-8.5-21.2-8.5c-0.1,0-0.3,0-0.4,0     c-0.1,0-0.2,0-0.3,0c-8.1,0-17.1,3.8-22.4,10.3l-1.6-9.1H682.2z M695.8,332.5c0-11.1,8.1-19.5,19.6-19.5     c11.5,0,19.8,8.1,19.8,19.5s-8.2,19.5-19.8,19.5C704,352.1,695.8,343.6,695.8,332.5z"></path>
                <path fill="#29374A"
                      d="M829.6,352.4c4.8-0.2,9.8-2.9,9.8-12.7v-37.3h48.5v61.8h-13.5v-49.6h-21.8v25.4c0,17.1-10.1,24.9-23.1,24.6     L829.6,352.4z"></path>
                <path fill="#29374A"
                      d="M789.7,301.2c-18.8,0-32.7,13.5-32.7,31.8c0,18.3,13.9,31.8,32.7,31.8c18.9,0,32.7-13.4,32.7-31.8     C822.4,314.8,808.6,301.2,789.7,301.2z M789.7,352.6c-11.1,0-19.3-8.3-19.3-19.6c0-11.2,8.2-19.6,19.3-19.6     c11.2,0,19.3,8.3,19.3,19.6C809,344.3,800.9,352.6,789.7,352.6z"></path></g></g></g></svg>
