<svg width="80" height="40" viewBox="0 0 80 40" fill="none" xmlns="http://www.w3.org/2000/svg">
    <g clip-path="url(#clip0_5_573)">
        <path d="M60.1941 35.5661V35.6484H60.2705C60.2849 35.6486 60.299 35.645 60.3115 35.6379C60.3165 35.6344 60.3205 35.6296 60.3232 35.6241C60.3259 35.6186 60.3272 35.6126 60.3269 35.6064C60.3272 35.6004 60.3259 35.5945 60.3232 35.5891C60.3205 35.5838 60.3165 35.5792 60.3115 35.5758C60.2992 35.5684 60.2849 35.5647 60.2705 35.5653H60.1941V35.5661ZM60.2714 35.5079C60.3041 35.5059 60.3366 35.5154 60.3632 35.5347C60.3739 35.5434 60.3823 35.5546 60.3879 35.5672C60.3935 35.5799 60.3961 35.5937 60.3954 35.6075C60.3959 35.6194 60.3938 35.6312 60.3894 35.6423C60.3849 35.6533 60.3782 35.6632 60.3695 35.6714C60.349 35.6893 60.3233 35.7001 60.2962 35.7021L60.3987 35.8193H60.3197L60.2254 35.7029H60.1949V35.8193H60.1289V35.5081H60.2724L60.2714 35.5079ZM60.2509 35.9267C60.2855 35.927 60.3198 35.92 60.3515 35.9061C60.3821 35.8929 60.4099 35.874 60.4335 35.8504C60.4571 35.8268 60.476 35.7988 60.4891 35.7681C60.516 35.7029 60.516 35.6297 60.4891 35.5645C60.4758 35.5338 60.457 35.5059 60.4335 35.4822C60.4099 35.4586 60.3821 35.4397 60.3515 35.4265C60.3196 35.4134 60.2854 35.4068 60.2509 35.4072C60.2158 35.4068 60.1809 35.4134 60.1484 35.4265C60.1171 35.4395 60.0886 35.4584 60.0645 35.4822C60.0282 35.5195 60.0037 35.5667 59.994 35.6179C59.9843 35.6691 59.9897 35.7221 60.0098 35.7701C60.0223 35.801 60.0409 35.829 60.0645 35.8524C60.0886 35.8762 60.1171 35.8952 60.1484 35.9081C60.1807 35.922 60.2156 35.929 60.2509 35.9287V35.9267ZM60.2509 35.3323C60.341 35.3322 60.4275 35.3677 60.4917 35.431C60.5227 35.4614 60.5474 35.4977 60.5643 35.5378C60.5818 35.5789 60.5909 35.6231 60.5909 35.6678C60.5909 35.7125 60.5818 35.7568 60.5643 35.7979C60.547 35.8377 60.5224 35.8739 60.4917 35.9046C60.4603 35.9349 60.4237 35.9593 60.3837 35.9766C60.3417 35.9945 60.2965 36.0036 60.2509 36.0034C60.2047 36.0037 60.1589 35.9946 60.1164 35.9766C60.0759 35.9597 60.039 35.9353 60.0075 35.9046C59.9769 35.8728 59.9526 35.8354 59.936 35.7944C59.9184 35.7533 59.9094 35.7091 59.9094 35.6643C59.9094 35.6196 59.9184 35.5754 59.936 35.5343C59.9529 35.4942 59.9776 35.4579 60.0085 35.4275C60.0396 35.3964 60.0766 35.3719 60.1174 35.3555C60.16 35.3376 60.2057 35.3285 60.2519 35.3288L60.2509 35.3323ZM28.8613 34.1306C28.8613 33.5373 29.2487 33.0499 29.882 33.0499C30.4871 33.0499 30.8955 33.5163 30.8955 34.1306C30.8955 34.7449 30.4871 35.2114 29.882 35.2114C29.2487 35.2114 28.8613 34.724 28.8613 34.1306ZM31.5853 34.1306V32.4422H30.8537V32.8535C30.6216 32.5496 30.2696 32.3589 29.791 32.3589C28.848 32.3589 28.1079 33.1009 28.1079 34.1315C28.1079 35.162 28.8476 35.904 29.791 35.904C30.2694 35.904 30.6216 35.7132 30.8537 35.4094V35.8193H31.5845V34.1306H31.5853ZM56.3067 34.1306C56.3067 33.5373 56.6941 33.0499 57.3276 33.0499C57.9333 33.0499 58.3411 33.5163 58.3411 34.1306C58.3411 34.7449 57.9333 35.2114 57.3276 35.2114C56.6943 35.2114 56.3067 34.724 56.3067 34.1306ZM59.0315 34.1306V31.0869H58.2993V32.8535C58.0672 32.5496 57.7152 32.3589 57.2365 32.3589C56.2935 32.3589 55.5535 33.1009 55.5535 34.1315C55.5535 35.162 56.2931 35.904 57.2365 35.904C57.7152 35.904 58.0672 35.7132 58.2993 35.4094V35.8193H59.0315V34.1306ZM40.666 33.0152C41.1375 33.0152 41.4403 33.3117 41.5176 33.8339H39.7718C39.8499 33.3465 40.1449 33.0152 40.6662 33.0152H40.666ZM40.6808 32.3571C39.6947 32.3571 39.0049 33.0769 39.0049 34.1296C39.0049 35.2029 39.7224 35.9022 40.7298 35.9022C41.2365 35.9022 41.7006 35.7753 42.109 35.4292L41.7504 34.8852C41.4684 35.1114 41.1092 35.2383 40.7716 35.2383C40.3001 35.2383 39.8708 35.0193 39.7652 34.4116H42.2636C42.2707 34.3203 42.2781 34.2281 42.2781 34.1294C42.2707 33.0771 41.6221 32.3568 40.6803 32.3568L40.6808 32.3571ZM49.5138 34.1294C49.5138 33.5361 49.9012 33.0487 50.5345 33.0487C51.1396 33.0487 51.548 33.5151 51.548 34.1294C51.548 34.7437 51.1396 35.2101 50.5345 35.2101C49.9012 35.2101 49.5136 34.7227 49.5136 34.1294H49.5138ZM52.2376 34.1294V32.4422H51.5064V32.8535C51.2735 32.5496 50.9223 32.3589 50.4437 32.3589C49.5007 32.3589 48.7606 33.1009 48.7606 34.1315C48.7606 35.162 49.5003 35.904 50.4437 35.904C50.9223 35.904 51.2735 35.7132 51.5064 35.4094V35.8193H52.2378V34.1306L52.2376 34.1294ZM45.382 34.1294C45.382 35.1534 46.0925 35.902 47.177 35.902C47.6838 35.902 48.0214 35.7889 48.3865 35.4995L48.0351 34.9062C47.7604 35.1042 47.472 35.2101 47.1536 35.2101C46.5696 35.2029 46.1401 34.7793 46.1401 34.1294C46.1401 33.4795 46.5696 33.0561 47.1536 33.0487C47.4712 33.0487 47.7596 33.1546 48.0351 33.3526L48.3865 32.7593C48.0208 32.47 47.6831 32.3568 47.177 32.3568C46.0925 32.3568 45.382 33.1052 45.382 34.1294ZM54.8141 32.3568C54.392 32.3568 54.1171 32.5549 53.927 32.8515V32.4422H53.2019V35.8175H53.9344V33.9254C53.9344 33.3668 54.1736 33.0565 54.6519 33.0565C54.8085 33.0542 54.964 33.0831 55.1095 33.1414L55.335 32.4496C55.173 32.3856 54.9619 32.3575 54.8136 32.3575L54.8141 32.3568ZM35.2025 32.7106C34.8506 32.4778 34.3655 32.3575 33.8305 32.3575C32.9781 32.3575 32.4293 32.7673 32.4293 33.438C32.4293 33.9883 32.8379 34.3279 33.5902 34.4338L33.9359 34.4831C34.337 34.5397 34.5265 34.6456 34.5265 34.8363C34.5265 35.0972 34.26 35.2461 33.7596 35.2461C33.2528 35.2461 32.8871 35.0837 32.6405 34.893L32.2967 35.4654C32.6979 35.7619 33.2046 35.9034 33.7534 35.9034C34.7251 35.9034 35.2882 35.4444 35.2882 34.8017C35.2882 34.2084 34.845 33.898 34.1128 33.7921L33.768 33.742C33.4512 33.7008 33.1974 33.6369 33.1974 33.4106C33.1974 33.1638 33.4367 33.0154 33.8381 33.0154C34.2675 33.0154 34.6833 33.1778 34.8871 33.3047L35.2038 32.7114L35.2025 32.7106ZM44.643 32.3581C44.2209 32.3581 43.946 32.5561 43.7568 32.8527V32.4422H43.0317V35.8175H43.7633V33.9254C43.7633 33.3668 44.0026 33.0565 44.4808 33.0565C44.6375 33.0542 44.793 33.0831 44.9384 33.1414L45.1639 32.4496C45.0019 32.3856 44.7908 32.3575 44.6426 32.3575L44.643 32.3581ZM38.3995 32.4422H37.2031V31.4182H36.4635V32.4422H35.7811V33.1131H36.4635V34.6528C36.4635 35.436 36.7665 35.9024 37.632 35.9024C37.9495 35.9024 38.3153 35.8037 38.5473 35.6414L38.336 35.0129C38.1176 35.1398 37.8784 35.2038 37.6882 35.2038C37.3225 35.2038 37.2031 34.9775 37.2031 34.6388V33.1137H38.3995V32.4422ZM27.4609 35.8183V33.7C27.4609 32.9023 26.9542 32.3655 26.1373 32.3583C25.7078 32.3511 25.2648 32.4852 24.9546 32.9588C24.7226 32.5845 24.3568 32.3583 23.8427 32.3583C23.4833 32.3583 23.1322 32.4642 22.8573 32.8595V32.4422H22.125V35.8175H22.863V33.946C22.863 33.36 23.1869 33.0487 23.6871 33.0487C24.1729 33.0487 24.4187 33.3664 24.4187 33.9386V35.817H25.1584V33.9456C25.1584 33.3596 25.496 33.0483 25.9817 33.0483C26.4812 33.0483 26.7197 33.366 26.7197 33.9382V35.8166L27.4609 35.8183Z"
              fill="white"></path>
        <path d="M60.6069 24.5912V24.0977H60.4788L60.3306 24.4363L60.1832 24.0977H60.0546V24.5912H60.1457V24.2194L60.2842 24.5402H60.3785L60.5171 24.2186V24.5912H60.6073H60.6069ZM59.7941 24.5912V24.1822H59.9581V24.0989H59.5391V24.1822H59.7031V24.5912H59.7933H59.7941Z"
              fill="#F79410"></path>
        <path d="M46.0486 26.7075H34.9609V6.71777H46.0488L46.0486 26.7075Z" fill="#FF5F00"></path>
        <path d="M35.662 16.713C35.662 12.6581 37.5546 9.04597 40.5016 6.71816C38.2709 4.95353 35.5117 3.9958 32.6708 4.00001C25.6728 4.00001 20 9.69172 20 16.713C20 23.7343 25.6728 29.426 32.6708 29.426C35.5118 29.4302 38.271 28.4725 40.5018 26.7078C37.555 24.3804 35.662 20.7681 35.662 16.713Z"
              fill="#EB001B"></path>
        <path d="M61.0028 16.713C61.0028 23.7343 55.3301 29.426 48.332 29.426C45.4908 29.4302 42.7313 28.4725 40.5 26.7079C43.4479 24.38 45.3404 20.7681 45.3404 16.713C45.3404 12.6579 43.4479 9.04597 40.5 6.71816C42.7312 4.95358 45.4906 3.99588 48.3318 4.00001C55.3299 4.00001 61.0026 9.69173 61.0026 16.713"
              fill="#F79E1B"></path>
    </g>
    <defs>
        <clipPath id="clip0_5_573">
            <rect width="41" height="32" fill="white" transform="translate(20 4)"></rect>
        </clipPath>
    </defs>
</svg>