<svg width="80" height="40" viewBox="0 0 80 40" fill="none" xmlns="http://www.w3.org/2000/svg">
    <path fill-rule="evenodd" clip-rule="evenodd"
          d="M24.145 18.5082C24.8301 18.7349 25.5012 19.002 26.1546 19.3083L26.7702 17.616C25.5159 16.9882 24.3934 16.5596 23.3753 16.2872C21.83 13.1583 18.6056 11 14.886 11C10.2725 11 6.42275 14.3183 5.59033 18.6927C4.9176 18.4684 4.25851 18.205 3.61642 17.904L3 19.5958C3.86948 20.0312 4.67411 20.3685 5.42528 20.6262C5.43622 21.2539 5.50696 21.8666 5.63454 22.4586C4.9468 22.2304 4.27307 21.9621 3.61685 21.6548L3.00042 23.3479C4.26401 23.9799 5.39285 24.4085 6.41602 24.6809C7.96929 27.7887 11.1811 29.9285 14.8864 29.9285C19.4877 29.9285 23.3311 26.6279 24.1757 22.2683C24.8501 22.4933 25.5109 22.7573 26.1546 23.059L26.7702 21.3672C25.902 20.9323 25.0974 20.595 24.3466 20.3377C24.3395 19.7228 24.272 19.11 24.145 18.5082ZM14.8864 13.0417C17.2586 13.0417 19.3723 14.163 20.7327 15.9015C15.5681 15.827 13.3112 20.115 7.57644 19.1866C8.18487 15.7007 11.2291 13.0417 14.8864 13.0417ZM7.49813 21.1651C13.7028 22.2207 15.8481 17.1853 21.8776 17.979C22.0839 18.5567 22.2195 19.1659 22.2763 19.7984C16.0738 18.7415 13.9264 23.7706 7.90655 22.9845C7.69362 22.3979 7.55637 21.7865 7.49813 21.1651ZM14.8864 27.886C12.5289 27.886 10.4266 26.7807 9.06614 25.0611C14.2106 25.1213 16.4687 20.8531 22.1892 21.7756C21.5677 25.2434 18.5306 27.886 14.8864 27.886Z"
          fill="#4D774A"></path>
    <path fill-rule="evenodd" clip-rule="evenodd"
          d="M33.6851 16.6418L31.2422 23.617H33.9146L34.3828 22.1121H36.4755L36.9538 23.617H39.7639L37.2826 16.6418H33.6851ZM35.4489 18.2961L36.1765 20.4784H34.6919L35.4089 18.2961H35.4489ZM45.7724 16.7613C45.0127 16.5987 44.2377 16.5187 43.4608 16.5226C40.5012 16.5226 39.8633 17.8081 39.8633 18.7845C39.8633 20.4982 41.3984 20.7875 42.4039 20.9963C42.9227 21.1062 43.5404 21.1559 43.5404 21.5744C43.5404 22.0031 42.8225 22.0628 42.3446 22.0628C41.7761 22.0628 40.9492 21.9929 39.9429 21.5946V23.4081C41.049 23.689 42.1248 23.7386 42.822 23.7386C45.8713 23.7386 46.2301 22.1824 46.2301 21.3955C46.2301 19.6418 44.6562 19.3925 43.4199 19.1534C42.9719 19.0734 42.553 18.9938 42.553 18.6649C42.553 18.2068 43.1707 18.1967 43.6995 18.1967C44.6658 18.1967 45.3235 18.3862 45.7719 18.5555V16.7613H45.7724ZM52.6377 16.7613C51.878 16.5987 51.103 16.5187 50.3261 16.5226C47.3673 16.5226 46.729 17.8081 46.729 18.7845C46.729 20.4982 48.2637 20.7875 49.2701 20.9963C49.788 21.1062 50.4057 21.1559 50.4057 21.5744C50.4057 22.0031 49.6886 22.0628 49.2099 22.0628C48.6423 22.0628 47.8153 21.9929 46.8086 21.5946V23.4081C47.9147 23.689 48.9913 23.7386 49.6886 23.7386C52.737 23.7386 53.0958 22.1824 53.0958 21.3955C53.0958 19.6418 51.5219 19.3925 50.2865 19.1534C49.8377 19.0734 49.4195 18.9938 49.4195 18.6649C49.4195 18.2068 50.0372 18.1967 50.5652 18.1967C51.5316 18.1967 52.1892 18.3862 52.6377 18.5555V16.7613ZM53.8933 16.6418V23.617H56.5636V16.6418H53.8933ZM63.2701 16.7613C62.5102 16.5987 61.7349 16.5187 60.9577 16.5226C57.999 16.5226 57.3606 17.8081 57.3606 18.7845C57.3606 20.4982 58.8954 20.7875 59.9017 20.9963C60.4196 21.1062 61.0381 21.1559 61.0381 21.5744C61.0381 22.0031 60.3202 22.0628 59.8415 22.0628C59.2739 22.0628 58.447 21.9929 57.4402 21.5946V23.4081C58.5463 23.689 59.623 23.7386 60.3202 23.7386C63.3695 23.7386 63.7283 22.1824 63.7283 21.3955C63.7283 19.6418 62.1544 19.3925 60.9181 19.1534C60.4701 19.0734 60.0512 18.9938 60.0512 18.6649C60.0512 18.2068 60.6689 18.1967 61.1969 18.1967C62.164 18.1967 62.8209 18.3862 63.2701 18.5555V16.7613ZM64.0769 16.6418V18.7045H66.4285V23.617H69.0988V18.7045H71.45V16.6418H64.0769ZM73.8251 16.6818V16.8169H74.3241V18.3445H74.4807V16.8169H74.9772V16.6818H73.8251ZM76.1203 18.1946L76.0513 17.974L75.498 16.6818H75.2504V18.3445H75.4075V17.0569L75.4024 16.8312H75.4121L75.4929 17.0498L76.0437 18.3445H76.2058L76.757 17.0498L76.8374 16.8312H76.8475L76.8424 17.0569V18.3445H76.9995V16.6818H76.7519L76.1986 17.974L76.1296 18.1946H76.1203Z"
          fill="white"></path>
</svg>