<svg version="1.1" id="Слой_1" xmlns="http://www.w3.org/2000/svg" xmlns:xlink="http://www.w3.org/1999/xlink"
     x="0px" y="0px" width="80" height="40" viewBox="0 0 1080 238" xml:space="preserve"><g><g><path fill="#002E8D" d="M392.05,130.05c0,27.75-20.5,47.33-49.17,47.33c-27.03,0-49.35-17.59-49.35-52.23V108.1    c0-33.37,16.15-57.62,46.08-63.24l44.22-5.49v17.77l-40.05,4.76c-18.14,3.63-29.21,15.22-30.3,39.34    c6.89-13.78,20.32-17.45,32.66-17.45C372.64,83.8,392.05,102.48,392.05,130.05z M371.73,129.87c0-16.68-11.97-28.65-28.66-28.65    c-16.87,0-28.84,11.97-28.84,28.65c0,17.05,11.97,28.83,28.84,28.83C359.76,158.7,371.73,146.91,371.73,129.87z"></path><path
        fill="#002E8D"
        d="M499.99,135.49c0.07-2.97,0-5.81-0.2-8.55c-2.31-30.51-21.65-47.31-47.84-47.31    c-27.98,0-48.04,21.21-48.04,49.15c0,29.36,20.95,48.78,49.5,48.78c21.1,0,37.88-12.34,43.69-28.19h-20.03    c-4.62,6.26-12.44,10.97-23.49,10.97c-15.54,0-27.63-10.17-28.9-24.85H499.99z M424.7,119.71c1.07-13.41,12.46-23.21,27.26-23.21    c15.37,0,26.19,9.97,26.74,23.21H424.7z"></path><path
        fill="#002E8D"
        d="M506.96,157.79c7.26-0.36,14.87-4.35,14.87-19.4V81.63h73.89v94.12h-20.5v-75.62h-33.24v38.63    c0,26.11-15.42,37.9-35.2,37.54L506.96,157.79z"></path><polygon
        fill="#002E8D"
        points="651.74,125.52 696.85,81.62 672.97,81.62 648.03,105.83 633.99,119.46 633.99,81.62 633.67,81.62     614.69,81.62 613.48,81.62 613.48,175.74 614.69,175.74 633.67,175.74 633.99,175.74 633.99,131.6 647.81,147.15 673.16,175.74     697.02,175.74   "></polygon><path
        fill="#002E8D"
        d="M778.88,81.53l-2.49,13.98c-8.08-9.88-21.97-15.8-34.47-15.8c-0.15,0-0.28,0.02-0.43,0.02    c-0.22,0-0.43-0.02-0.66-0.02c-13.59,0-24.65,4.97-32.57,13.06c-0.38,0.38-0.78,0.76-1.15,1.15c-0.22,0.24-0.43,0.51-0.64,0.76    c-7.63,8.63-11.9,20.38-11.9,33.81c0,0.06,0.01,0.12,0.01,0.18c0,0.06-0.01,0.12-0.01,0.18c0,13.43,4.27,25.19,11.9,33.81    c0.22,0.25,0.42,0.51,0.64,0.76c0.37,0.4,0.77,0.77,1.15,1.15c7.92,8.09,18.98,13.06,32.57,13.06c0.22,0,0.44-0.02,0.66-0.02    c0.15,0,0.28,0.02,0.43,0.02c12.5,0,26.39-5.92,34.47-15.8v13.98h20.86v-0.18V81.72v-0.18H778.88z M746.09,158.79    c-17.78,0-30.48-12.51-30.48-30.1s12.7-30.1,30.48-30.1c17.6,0,30.12,13.06,30.12,30.1S763.69,158.79,746.09,158.79z"></path><path
        fill="#002E8D"
        d="M814.97,81.53v0.18v136.31v0.18h20.86v-56.36c8.08,9.88,21.97,15.8,34.47,15.8c0.15,0,0.28-0.02,0.43-0.02    c0.22,0,0.43,0.02,0.66,0.02c13.59,0,24.65-4.97,32.57-13.06c0.38-0.38,0.78-0.76,1.15-1.15c0.22-0.24,0.43-0.51,0.64-0.76    c7.63-8.63,11.9-20.38,11.9-33.81c0-0.06-0.01-0.12-0.01-0.18c0-0.06,0.01-0.12,0.01-0.18c0-13.43-4.27-25.19-11.9-33.81    c-0.22-0.25-0.42-0.51-0.64-0.76c-0.37-0.4-0.77-0.77-1.15-1.15c-7.92-8.09-18.98-13.06-32.57-13.06c-0.22,0-0.44,0.02-0.66,0.02    c-0.15,0-0.28-0.02-0.43-0.02c-12.5,0-26.39,5.92-34.47,15.8l-2.49-13.98H814.97z M836.02,128.68c0-17.05,12.52-30.1,30.12-30.1    c17.78,0,30.48,12.51,30.48,30.1s-12.7,30.1-30.48,30.1C848.54,158.79,836.02,145.73,836.02,128.68z"></path><path
        fill="#002E8D"
        d="M1073,117.04v58.83h-20.71V122.3c0-17.07-8.72-24.7-20.35-24.7c-11.99,0-21.07,7.99-21.07,24.7v53.57h-20.71    V122.3c0-17.07-8.9-24.7-20.17-24.7c-12.17,0-21.25,7.99-21.25,24.7v53.57h-20.89V81.63h18.22l2.36,13.59    c5.45-9.62,14.48-15.58,28.47-15.58c12.71,0,23.13,5.23,28.76,15.58c6.18-9.62,16.47-15.58,31.73-15.58    C1058.65,79.63,1073,93.98,1073,117.04z"></path></g><g><path fill="#32A8FF" d="M107.97,184.12L71.18,220.2c-2.47,2.42-2.43,5.52-1.58,7.62c0.85,2.1,3,4.34,6.45,4.35l64.74,0.21    c4.98,0.02,9.11-4.02,9.2-9.01c0-0.26,0.01-0.53,0.01-0.8c0.04-14.18-5.59-28.06-15.52-38.19    C127.23,177,115.35,176.88,107.97,184.12z"></path>
    <path fill="#32A8FF"
          d="M65.73,156.68l-51.53-0.5c-3.45-0.03-5.62,2.18-6.5,4.27c-0.88,2.09-0.95,5.19,1.48,7.64l45.63,45.92    c3.51,3.53,9.29,3.59,12.87,0.14c0.19-0.18,0.38-0.37,0.57-0.56c10.06-10,15.89-23.79,16.03-37.98    C84.38,165.27,76.06,156.78,65.73,156.68z"></path>
    <path fill="#32A8FF"
          d="M16.01,149.42c0.27,0,0.53,0.01,0.8,0.01c14.18,0.04,28.06-5.59,38.19-15.52c7.38-7.23,7.49-19.12,0.26-26.5    L19.18,70.62c-2.42-2.47-5.52-2.43-7.62-1.58c-2.1,0.85-4.34,3-4.35,6.45L7,140.22C6.98,145.2,11.02,149.33,16.01,149.42z"></path>
    <path fill="#32A8FF"
          d="M25.79,67.69c10,10.06,23.79,15.89,37.98,16.03c10.33,0.1,18.82-8.22,18.92-18.55l0.5-51.53    c0.03-3.45-2.18-5.62-4.27-6.5c-2.09-0.88-5.19-0.95-7.64,1.48L25.37,54.25c-3.53,3.51-3.59,9.29-0.14,12.87    C25.42,67.31,25.6,67.5,25.79,67.69z"></path>
    <path fill="#32A8FF"
          d="M131.96,54.7l36.79-36.08c2.47-2.42,2.43-5.52,1.58-7.62c-0.85-2.1-3-4.34-6.45-4.35L99.15,6.44    c-4.98-0.02-9.11,4.02-9.2,9.01c0,0.27-0.01,0.53-0.01,0.8c-0.04,14.18,5.59,28.06,15.52,38.19    C112.7,61.82,124.59,61.93,131.96,54.7z"></path>
    <path fill="#32A8FF"
          d="M174.21,82.13l51.53,0.5c3.45,0.03,5.62-2.18,6.5-4.27c0.88-2.09,0.95-5.19-1.48-7.64l-45.63-45.92    c-3.51-3.53-9.29-3.59-12.87-0.14c-0.19,0.18-0.38,0.37-0.57,0.56c-10.06,10-15.89,23.79-16.03,37.98    C155.55,73.55,163.88,82.03,174.21,82.13z"></path>
    <path fill="#32A8FF"
          d="M223.93,89.39c-0.27,0-0.53-0.01-0.8-0.01c-14.18-0.04-28.06,5.59-38.19,15.52    c-7.38,7.23-7.49,19.12-0.26,26.5l36.08,36.79c2.42,2.47,5.52,2.43,7.62,1.58c2.1-0.85,4.34-3,4.35-6.45l0.21-64.74    C232.95,93.61,228.91,89.48,223.93,89.39z"></path>
    <path fill="#32A8FF"
          d="M214.14,171.13c-10-10.06-23.79-15.89-37.98-16.03c-10.33-0.1-18.82,8.22-18.92,18.55l-0.5,51.53    c-0.03,3.45,2.18,5.62,4.27,6.5c2.09,0.88,5.19,0.95,7.64-1.48l45.92-45.63c3.53-3.51,3.59-9.29,0.14-12.87    C214.52,171.51,214.33,171.31,214.14,171.13z"></path></g></g></svg>
