<svg width="80" height="40" viewBox="0 0 80 40" fill="none" xmlns="http://www.w3.org/2000/svg">
    <path fill-rule="evenodd" clip-rule="evenodd"
          d="M74.6767 14.889V16.0211L74.4144 15.8003C73.6738 15.1773 72.4733 15.3384 71.7305 16.1606C71.3386 16.5945 71.1917 17.027 71.1977 17.7288C71.2056 18.6463 71.7083 19.4365 72.4924 19.7641C73.1007 20.0182 74.0595 19.8801 74.5259 19.4711C74.6649 19.3494 74.6767 19.3569 74.6767 19.5677C74.6767 19.7875 74.6951 19.7964 75.1517 19.7964H75.6266L75.6039 16.8027L75.5813 13.809L75.129 13.7829L74.6767 13.7568V14.889ZM46.764 14.8428V15.4889H46.3333H45.9025V15.9196V16.3504H46.3333H46.764L46.7659 17.6211C46.7682 19.1173 46.8799 19.4959 47.3907 19.7383C47.7687 19.9177 48.6425 19.9279 49.0498 19.7577C49.3888 19.6161 49.3835 19.6316 49.247 19.1758C49.1605 18.8871 49.1189 18.8456 48.967 18.8969C48.8689 18.93 48.6133 18.9746 48.399 18.9961C48.0782 19.0281 47.9795 19.0018 47.839 18.8469C47.6874 18.6795 47.6686 18.5339 47.6686 17.5262V16.3935L48.4224 16.3686L49.1763 16.3437V15.9163V15.4889H48.4009H47.6256V14.8428V14.1966H47.1948H46.764V14.8428ZM29.9654 15.54C29.7999 15.6117 29.577 15.7527 29.47 15.8531L29.2756 16.0359V15.7623C29.2756 15.4916 29.2713 15.4889 28.8448 15.4889H28.4141V17.6426V19.7964H28.8448H29.2756L29.2804 18.5257C29.286 17.0663 29.3649 16.7426 29.7837 16.4611C30.3488 16.0811 31.0808 16.3137 31.2512 16.9274C31.3013 17.1076 31.3424 17.8268 31.3427 18.5257L31.3432 19.7964L31.7955 19.7961L32.2477 19.7959V18.4393C32.2477 17.2288 32.2667 17.0504 32.4236 16.7834C32.7714 16.1914 33.6583 16.1111 34.0486 16.6364C34.2122 16.8565 34.2318 17.0161 34.2564 18.3379L34.2836 19.7964H34.7599H35.236L35.2049 18.1811C35.1794 16.8683 35.1463 16.5153 35.0276 16.296C34.5034 15.3281 33.136 15.114 32.3105 15.8704L32.0019 16.1534L31.7172 15.8687C31.2682 15.4197 30.5525 15.2854 29.9654 15.54ZM37.6316 15.4832C36.5901 15.8001 36.0343 16.652 36.0943 17.8396C36.1351 18.6472 36.4389 19.19 37.0677 19.5788C37.4468 19.8132 37.5603 19.8395 38.192 19.8395C38.8289 19.8395 38.9243 19.8169 39.2111 19.5982L39.5274 19.3569V19.5766C39.5274 19.7855 39.5508 19.7964 40.0013 19.7964H40.4751V17.6382V15.4798L40.0228 15.5059C39.5996 15.5303 39.5687 15.5474 39.543 15.7715L39.5155 16.011L39.2604 15.7964C38.8503 15.4513 38.1678 15.3201 37.6316 15.4832ZM42.7581 15.4779C41.9363 15.6953 41.5666 16.1386 41.6187 16.8445C41.6721 17.5667 42.1038 17.8866 43.2764 18.0732C44.211 18.222 44.5033 18.5211 44.0841 18.9C43.8098 19.1479 42.722 19.1322 42.2028 18.8728C41.9922 18.7675 41.8147 18.69 41.8085 18.7005C41.8023 18.7109 41.7074 18.8688 41.5975 19.0514C41.3679 19.4328 41.37 19.4355 42.0937 19.7098C42.4161 19.8321 42.7575 19.8825 43.2627 19.8825C43.8718 19.8825 44.044 19.8478 44.4383 19.6456C45.1729 19.2689 45.4231 18.5478 45.0385 17.9168C44.8227 17.5629 44.345 17.3455 43.5019 17.2175C43.1528 17.1644 42.7942 17.082 42.705 17.0342C42.4832 16.9155 42.4994 16.5628 42.7342 16.3984C43.0069 16.2074 43.8708 16.2256 44.3254 16.432L44.6865 16.596L44.9022 16.2362L45.1177 15.8766L44.7042 15.6826C44.2523 15.4709 43.2022 15.3603 42.7581 15.4779ZM51.4353 15.5294C50.569 15.7999 50.0275 16.5823 50.0218 17.5717C50.0201 17.8726 50.0703 18.2927 50.1335 18.5053C50.2925 19.0403 50.9017 19.6403 51.4384 19.7905C52.0057 19.9494 52.9959 19.875 53.4564 19.6389C53.9934 19.3637 53.9932 19.3675 53.5209 18.6929C53.5106 18.6782 53.3559 18.7447 53.177 18.8405C52.4235 19.2443 51.4896 19.1145 51.1507 18.5588C50.8024 17.9877 50.8035 17.9872 52.5914 17.9872H54.1975L54.1435 17.4709C54.0734 16.7998 53.8943 16.3836 53.5026 15.9817C52.9956 15.4613 52.2062 15.2887 51.4353 15.5294ZM56.6054 15.5686C56.4033 15.6629 56.2105 15.8095 56.177 15.8945C56.1281 16.0185 56.107 15.998 56.0698 15.7904C56.0256 15.5439 56.0036 15.532 55.5936 15.532H55.1637L55.1407 17.6642L55.1176 19.7964H55.5874H56.0572L56.0843 18.2905L56.1113 16.7846L56.3506 16.5459C56.5608 16.3363 56.6514 16.3084 57.0966 16.3166L57.6035 16.3259L57.7093 15.948C57.7674 15.7402 57.7922 15.5473 57.7643 15.5194C57.6236 15.3787 56.951 15.4072 56.6054 15.5686ZM59.7029 15.5302C58.9512 15.7648 58.4899 16.2354 58.2587 17.0032C58.1028 17.5215 58.1037 17.8482 58.2626 18.3808C58.549 19.3406 59.3428 19.8816 60.4619 19.8798C61.0993 19.8788 61.7361 19.6902 61.8781 19.4604C61.9105 19.4079 61.8513 19.2122 61.7464 19.0256L61.5557 18.6863L61.2276 18.8537C60.7604 19.092 60.0566 19.0791 59.6798 18.8251C59.2769 18.5536 59.0411 17.967 59.121 17.4346C59.2681 16.4539 60.2988 15.9942 61.2488 16.4856C61.5488 16.6407 61.5769 16.6273 61.7901 16.2268C61.9528 15.9211 61.9528 15.9147 61.7901 15.79C61.5466 15.6033 60.8259 15.4019 60.4247 15.4085C60.232 15.4117 59.9071 15.4664 59.7029 15.5302ZM64.0797 15.4832C63.0908 15.784 62.5097 16.58 62.5031 17.6426C62.4971 18.614 62.9878 19.4172 63.7924 19.7535C64.4203 20.0158 65.351 19.8865 65.8248 19.4711C65.9637 19.3494 65.9755 19.3569 65.9755 19.5677C65.9755 19.7876 65.9939 19.7964 66.4508 19.7964H66.9262L66.9031 17.6642L66.8801 15.532L66.4278 15.5059L65.9755 15.4798V15.7505V16.0211L65.7144 15.8014C65.2986 15.4514 64.6189 15.3192 64.0797 15.4832ZM69.68 15.5342C69.5142 15.6079 69.3115 15.754 69.2296 15.8586L69.0807 16.0489L69.0788 15.7644L69.0769 15.4798L68.6247 15.5059L68.1724 15.532L68.1494 17.6642L68.1263 19.7964H68.6017H69.0769L69.0773 18.3965C69.0776 17.1493 69.0963 16.9658 69.2496 16.7144C69.4611 16.3675 69.7843 16.235 70.2494 16.3045L70.6034 16.3573L70.7135 15.9637C70.7741 15.7472 70.8009 15.5473 70.773 15.5194C70.6525 15.3989 69.963 15.4083 69.68 15.5342ZM38.9935 16.497C39.5783 16.9336 39.783 17.7398 39.4594 18.3318C38.9642 19.2377 37.5878 19.2679 37.1674 18.3821C36.9591 17.943 36.9864 17.2151 37.2246 16.8585C37.6153 16.2737 38.4625 16.1006 38.9935 16.497ZM52.7503 16.451C52.9472 16.6058 53.2253 17.075 53.2253 17.2522C53.2253 17.2774 52.7213 17.298 52.1054 17.298C51.0959 17.298 50.9855 17.2831 50.986 17.1473C50.9868 16.9362 51.2812 16.5125 51.5187 16.3808C51.8442 16.2001 52.4773 16.2362 52.7503 16.451ZM65.2285 16.3817C66.1818 16.7801 66.324 18.2466 65.4654 18.8251C65.088 19.0795 64.4133 19.0921 64.0198 18.8522C63.1433 18.3178 63.2596 16.8043 64.2095 16.3851C64.5453 16.2368 64.8791 16.2357 65.2285 16.3817ZM74.1481 16.4968C74.5163 16.7647 74.7823 17.3616 74.7268 17.7949C74.6228 18.605 74.1798 19.0202 73.4187 19.0207C72.8395 19.0211 72.454 18.765 72.2336 18.233C71.9329 17.5075 72.2309 16.687 72.9063 16.3807C73.245 16.2272 73.8563 16.2843 74.1481 16.4968ZM47.281 25.0889V28.3253H47.5394H47.7979V26.937C47.7979 25.6694 47.8142 25.5198 47.986 25.214C48.3523 24.5623 49.4234 24.3265 50.0226 24.7656C50.4837 25.1035 50.5544 25.3907 50.5545 26.9253L50.5547 28.3253H50.8185H51.0824L51.0554 26.7961C51.0245 25.0425 50.9451 24.7676 50.3569 24.3784C49.8673 24.0544 48.9992 24.0074 48.4463 24.2751C48.2302 24.3797 48.0056 24.5487 47.9471 24.6507C47.8588 24.805 47.8337 24.5898 47.7979 23.3716L47.7548 21.9071L47.5179 21.8798L47.281 21.8525V25.0889ZM62.3285 21.9215C62.2969 21.953 62.2711 23.4068 62.2711 25.1521V28.3253H62.5295H62.788V27.3345V26.3438L63.111 26.3409C63.4127 26.338 63.4968 26.404 64.3818 27.3388C65.2439 28.2493 65.3537 28.337 65.5988 28.3109L65.8682 28.2822L64.8894 27.2053L63.9107 26.1284L64.9203 25.1162L65.9298 24.1039H65.6281C65.3596 24.1039 65.227 24.2036 64.4248 25.0085C63.5613 25.8751 63.5079 25.9131 63.1557 25.9131H62.788V23.8885V21.864H62.587C62.4764 21.864 62.3601 21.8898 62.3285 21.9215ZM28.5002 25.1808V28.3253H28.7587H29.0171V25.1808V22.0363H28.7587H28.5002V25.1808ZM30.977 22.0839C30.9415 22.1209 30.9124 23.5438 30.9124 25.246V28.3409L32.6139 28.3115C34.3135 28.2822 34.316 28.2819 34.883 28.0132C35.9664 27.4999 36.5112 26.6803 36.582 25.4572C36.6746 23.8579 35.9111 22.6851 34.4876 22.2402C34.018 22.0934 31.0932 21.9632 30.977 22.0839ZM42.2925 22.1614C40.5623 22.7225 39.7201 24.6528 40.4038 26.4904C40.6404 27.1264 41.2285 27.7444 41.9219 28.0857C42.4549 28.3481 42.5578 28.3683 43.3593 28.3683C44.1291 28.3683 44.2755 28.3424 44.7106 28.1288C44.9789 27.9969 45.3566 27.7309 45.5499 27.5377L45.9014 27.1862L45.6864 27.0171L45.4715 26.848L45.2634 27.0952C44.6954 27.7701 43.5041 28.061 42.5016 27.7696C42.1013 27.6532 41.9004 27.5244 41.5096 27.1336C40.8732 26.4972 40.6979 26.0091 40.7498 25.0189C40.8093 23.884 41.2636 23.2078 42.2803 22.7404C43.2194 22.3088 44.3302 22.4895 45.1194 23.2025C45.4484 23.4997 45.4954 23.5174 45.6867 23.415C45.8412 23.3323 45.8758 23.2676 45.8201 23.1652C45.6803 22.9076 45.2583 22.5665 44.7826 22.3265C44.3808 22.1237 44.1844 22.0836 43.4903 22.0628C42.953 22.0467 42.5416 22.0806 42.2925 22.1614ZM34.5343 22.7965C35.1024 23.0183 35.5685 23.4696 35.84 24.0608C36.1428 24.72 36.123 25.7815 35.7955 26.4498C35.5113 27.0296 35.0941 27.4015 34.4628 27.6378C34.0834 27.7798 33.7922 27.8084 32.7183 27.8084H31.4293V25.2382C31.4293 23.8246 31.4584 22.6385 31.4939 22.6023C31.5295 22.5662 32.1207 22.5531 32.8077 22.5734C33.8236 22.6033 34.1461 22.6449 34.5343 22.7965ZM53.5268 24.2676C52.7828 24.6128 52.3638 25.302 52.3638 26.1803C52.3638 26.8557 52.4939 27.2872 52.8151 27.6768C53.2315 28.1821 53.6727 28.3652 54.4745 28.3659C55.1797 28.3665 55.5043 28.2656 55.9821 27.8967C56.1783 27.7453 56.1853 27.7182 56.0618 27.5938C55.938 27.469 55.8827 27.48 55.4285 27.7189C54.6559 28.1252 53.9002 28.0691 53.3684 27.5659C53.0988 27.3109 52.9345 27.0272 52.8485 26.6686L52.7922 26.4335L54.581 26.4101L56.3698 26.3869L56.3424 25.9633C56.3122 25.4941 56.0224 24.852 55.7095 24.5603C55.2125 24.097 54.19 23.9599 53.5268 24.2676ZM58.4956 24.3279C57.2683 24.9395 56.9869 26.7113 57.9519 27.7517C58.3617 28.1935 58.7972 28.3643 59.5143 28.3646C60.1609 28.3649 60.5387 28.2432 60.9149 27.9132C61.0553 27.7901 61.0561 27.769 60.9256 27.6248C60.7903 27.4753 60.7709 27.4773 60.4295 27.6754C59.9634 27.946 59.5382 28.0169 59.0961 27.8979C57.6412 27.5061 57.44 25.3566 58.7969 24.6997C59.3077 24.4525 59.9681 24.4992 60.4477 24.8165C60.785 25.0398 60.79 25.0404 60.9413 24.8731C61.0879 24.7111 61.0874 24.6988 60.9288 24.5716C60.2769 24.0489 59.2599 23.947 58.4956 24.3279ZM55.1307 24.723C55.4486 24.9017 55.896 25.5821 55.896 25.8869C55.896 25.9749 55.5701 25.9992 54.3883 25.9992C52.9284 25.9992 52.8807 25.9937 52.8807 25.8235C52.8807 25.4011 53.3686 24.7696 53.8284 24.5969C54.1478 24.4768 54.8061 24.5405 55.1307 24.723Z"
          fill="white"></path>
    <path d="M23.9894 21.6418V21.3867H23.9232L23.8466 21.5618L23.7704 21.3867H23.704V21.6418H23.751V21.4496L23.8226 21.6154H23.8714L23.943 21.4492V21.6418H23.9896H23.9894ZM23.5693 21.6418V21.4304H23.6541V21.3874H23.4375V21.4304H23.5223V21.6418H23.5689H23.5693Z"
          fill="#F79410"></path>
    <path d="M16.4649 22.7357H10.7344V12.4043H16.465L16.4649 22.7357Z" fill="#FF5F00"></path>
    <path d="M11.0947 17.5706C11.0947 15.4748 12.0729 13.6079 13.596 12.4048C12.4431 11.4928 11.017 10.9978 9.54877 11C5.9319 11 3 13.9417 3 17.5706C3 21.1994 5.9319 24.1411 9.54877 24.1411C11.0171 24.1433 12.4431 23.6483 13.5961 22.7363C12.0731 21.5334 11.0947 19.6664 11.0947 17.5706Z"
          fill="#EB001B"></path>
    <path d="M24.1904 17.5706C24.1904 21.1994 21.2585 24.1411 17.6416 24.1411C16.1732 24.1433 14.747 23.6483 13.5938 22.7363C15.1173 21.5332 16.0955 19.6664 16.0955 17.5706C16.0955 15.4747 15.1173 13.6079 13.5938 12.4048C14.7469 11.4928 16.1731 10.9979 17.6415 11C21.2584 11 24.1903 13.9417 24.1903 17.5706"
          fill="#F79E1B"></path>
</svg>