<svg version="1.0" xmlns="http://www.w3.org/2000/svg" style="background-color:#FFFFFF" width="30" height="30"
     viewBox="0 0 108.000000 104.000000" preserveAspectRatio="xMidYMid meet" fill="#FFFFFF">
    <g transform="translate(0.000000,104.000000) scale(0.100000,-0.100000)" fill="#1a1f71" stroke="#1a1f71">
        <path d="M5 520 c0 -289 1 -407 2 -262 2 144 2 380 0 525 -1 144 -2 26 -2 -263z"></path>
        <path d="M1075 520 c0 -289 1 -407 2 -262 2 144 2 380 0 525 -1 144 -2 26 -2 -263z"></path>
        <path d="M180 881 c33 -18 37 -25 61 -117 l26 -99 33 0 c36 0 34 -4 111 188 l19 48 -32 -3 c-30 -3 -34 -8 -64 -82 l-31 -79 -13 69 c-7 38 -17 75 -23 82 -5 7 -32 12 -66 12 l-56 -1 35 -18z"></path>
        <path d="M455 888 c-6 -21 -45 -208 -45 -218 0 -15 60 -12 60 3 1 6 11 60 24 120 l24 107 -29 0 c-16 0 -31 -6 -34 -12z"></path>
        <path d="M560 871 c-17 -16 -30 -37 -30 -46 0 -16 28 -46 71 -77 34 -23 13 -41 -40 -36 -34 3 -42 0 -47 -15 -8 -25 11 -37 59 -37 105 0 145 87 64 139 -51 34 -48 51 9 51 41 0 45 2 42 23 -3 19 -10 22 -51 25 -41 3 -51 -1 -77 -27z"></path>
        <path d="M784 892 c-7 -4 -32 -56 -57 -117 l-46 -110 27 -3 c19 -3 31 3 41 17 19 29 81 30 88 1 7 -27 53 -28 53 -1 0 10 -9 63 -20 116 -11 53 -20 99 -20 101 0 7 -55 4 -66 -4z m35 -124 c1 -12 -6 -18 -19 -18 -23 0 -24 3 -8 48 12 32 13 33 19 11 4 -13 7 -32 8 -41z"></path>
        <path d="M40 270 l0 -250 500 0 500 0 0 250 0 250 -500 0 -500 0 0 -250z m282 45 c-1 -5 -10 -10 -19 -10 -27 0 -26 -21 2 -33 14 -7 25 -20 25 -31 0 -23 -34 -45 -56 -37 -22 8 -17 23 7 22 32 -1 35 22 5 34 -28 10 -34 38 -14 58 15 15 54 12 50 -3z m98 6 c0 -5 -10 -11 -22 -13 -28 -4 -36 -28 -9 -28 11 0 23 -4 26 -10 4 -6 -5 -10 -20 -10 -34 0 -30 -31 5 -41 21 -6 20 -7 -12 -8 l-38 -1 0 60 0 60 35 0 c19 0 35 -4 35 -9z m100 -6 c0 -9 -6 -12 -15 -9 -35 14 -61 -46 -33 -74 7 -7 21 -12 32 -12 14 0 17 -3 9 -11 -17 -17 -63 1 -74 28 -13 35 -12 41 16 68 27 28 65 33 65 10z m40 -29 c0 -44 19 -74 40 -61 5 3 10 26 10 50 0 24 5 47 10 50 6 4 10 -15 10 -49 0 -44 -4 -57 -19 -66 -27 -14 -37 -13 -55 6 -18 17 -23 114 -6 114 6 0 10 -20 10 -44z m164 28 c19 -18 20 -26 5 -41 -8 -8 -8 -17 0 -31 14 -27 14 -32 -4 -32 -8 0 -15 9 -15 20 0 11 -7 20 -15 20 -8 0 -15 -9 -15 -20 0 -11 -4 -20 -10 -20 -11 0 -14 103 -3 113 11 12 41 7 57 -9z m101 6 c4 -6 -5 -10 -19 -10 -16 0 -26 -6 -26 -15 0 -8 9 -15 20 -15 11 0 20 -4 20 -10 0 -5 -9 -10 -20 -10 -33 0 -26 -38 8 -43 22 -3 20 -4 -10 -6 l-38 -1 0 60 c0 60 0 60 29 60 17 0 33 -4 36 -10z"></path>
        <path d="M680 290 c0 -11 7 -20 15 -20 8 0 15 9 15 20 0 11 -7 20 -15 20 -8 0 -15 -9 -15 -20z"></path>
    </g>
</svg>